<svg width="53" height="53" viewBox="0 0 53 53" fill="none" xmlns="http://www.w3.org/2000/svg">
<rect width="53" height="53" rx="26.5" fill="#E6E5E5"/>
<path d="M26.5059 12.9115C18.986 12.9115 12.9204 18.9784 12.9204 26.5C12.9204 34.0216 18.986 40.0885 26.5059 40.0885C34.0258 40.0885 40.0914 34.0216 40.0914 26.5C40.0914 18.9784 34.0258 12.9115 26.5059 12.9115ZM26.5059 35.3343C21.6463 35.3343 17.6736 31.3725 17.6736 26.5C17.6736 21.6275 21.6345 17.6657 26.5059 17.6657C31.3773 17.6657 35.3383 21.6275 35.3383 26.5C35.3383 31.3725 31.3655 35.3343 26.5059 35.3343ZM43.8159 12.3556C43.8159 14.1178 42.397 15.5251 40.6471 15.5251C38.8854 15.5251 37.4784 14.1059 37.4784 12.3556C37.4784 10.6053 38.8972 9.18615 40.6471 9.18615C42.397 9.18615 43.8159 10.6053 43.8159 12.3556ZM52.8138 15.5724C52.6128 11.3267 51.6432 7.56594 48.5336 4.46742C45.4358 1.36891 41.6758 0.399141 37.4311 0.186266C33.0563 -0.0620886 19.9437 -0.0620886 15.5689 0.186266C11.336 0.387315 7.57607 1.35708 4.46643 4.4556C1.35678 7.55411 0.399052 11.3149 0.186224 15.5606C-0.0620747 19.9363 -0.0620747 33.0518 0.186224 37.4276C0.387228 41.6733 1.35678 45.4341 4.46643 48.5326C7.57607 51.6311 11.3242 52.6009 15.5689 52.8137C19.9437 53.0621 33.0563 53.0621 37.4311 52.8137C41.6758 52.6127 45.4358 51.6429 48.5336 48.5326C51.6314 45.4341 52.601 41.6733 52.8138 37.4276C53.0621 33.0518 53.0621 19.9482 52.8138 15.5724ZM47.162 42.1227C46.2398 44.4406 44.4544 46.2264 42.1251 47.1607C38.6371 48.5444 30.3605 48.2251 26.5059 48.2251C22.6514 48.2251 14.3629 48.5326 10.8867 47.1607C8.56927 46.2383 6.78388 44.4525 5.84981 42.1227C4.46643 38.6339 4.78567 30.3554 4.78567 26.5C4.78567 22.6446 4.47825 14.3543 5.84981 10.8773C6.77206 8.55935 8.55745 6.77357 10.8867 5.83928C14.3747 4.4556 22.6514 4.77491 26.5059 4.77491C30.3605 4.77491 38.6489 4.46742 42.1251 5.83928C44.4426 6.76174 46.2279 8.54753 47.162 10.8773C48.5454 14.3661 48.2262 22.6446 48.2262 26.5C48.2262 30.3554 48.5454 38.6457 47.162 42.1227Z" fill="black"/>
</svg>
