<svg width="53" height="53" viewBox="0 0 53 53" fill="none" xmlns="http://www.w3.org/2000/svg">
<rect width="53" height="53" rx="26.5" fill="#E6E5E5"/>
<path d="M9.83398 0C4.43235 0 0 4.43235 0 9.83398V43.166C0 48.5676 4.43235 53 9.83398 53H43.166C48.5676 53 53 48.5676 53 43.166V9.83398C53 4.43235 48.5676 0 43.166 0H9.83398ZM9.83398 4.81818H43.166C45.9609 4.81818 48.1818 7.03906 48.1818 9.83398V43.166C48.1818 45.9609 45.9609 48.1818 43.166 48.1818H9.83398C7.03906 48.1818 4.81818 45.9609 4.81818 43.166V9.83398C4.81818 7.03906 7.03906 4.81818 9.83398 4.81818ZM25.8224 17.4189C24.0533 17.4 22.5476 17.4189 21.7006 17.8329C21.136 18.1058 20.7031 18.7269 20.9666 18.7551C21.296 18.8022 22.0394 18.9622 22.4347 19.4986C22.9428 20.1855 22.924 21.7383 22.924 21.7383C22.924 21.7383 23.2063 26.0107 22.237 26.5471C21.5689 26.9141 20.6561 26.1706 18.6799 22.7734C17.6729 21.0231 16.9107 19.0939 16.9107 19.0939C16.9107 19.0939 16.7695 18.7363 16.506 18.5481C16.1861 18.3129 15.7438 18.2376 15.7438 18.2376L11.0291 18.2658C11.0291 18.2658 10.3233 18.294 10.0693 18.5952C9.83399 18.8775 10.0504 19.4327 10.0504 19.4327C10.0504 19.4327 13.7393 28.0621 17.9176 32.4098C21.7477 36.3999 26.0953 36.1364 26.0953 36.1364H28.0716C28.0716 36.1364 28.6644 36.0705 28.9656 35.7505C29.2479 35.4494 29.2385 34.8848 29.2385 34.8848C29.2385 34.8848 29.2008 32.2404 30.4242 31.8452C31.6381 31.4688 33.1815 34.4048 34.8283 35.5341C36.0799 36.3904 37.0304 36.2022 37.0304 36.2022L41.4345 36.1364C41.4345 36.1364 43.7306 35.9952 42.639 34.179C42.5543 34.0378 42.0085 32.8427 39.3736 30.396C36.6069 27.8363 36.9739 28.2504 40.3052 23.818C42.3285 21.1172 43.1378 19.4703 42.8837 18.7551C42.639 18.087 41.1522 18.2658 41.1522 18.2658L36.1928 18.294C36.1928 18.294 35.8258 18.247 35.5529 18.407C35.2894 18.5669 35.12 18.9434 35.12 18.9434C35.12 18.9434 34.3295 21.0325 33.285 22.8111C31.0829 26.5565 30.1889 26.7635 29.8313 26.5282C28.9938 25.9824 29.2008 24.345 29.2008 23.1875C29.2008 19.5456 29.756 18.0399 28.128 17.6447C27.5916 17.513 27.1964 17.4283 25.8224 17.4189Z" fill="black"/>
</svg>
